<?xml version="1.0" encoding="utf-8"?>
<svg viewBox="0 0 600 220" xmlns="http://www.w3.org/2000/svg">
  <rect x="58.414" y="7.223" width="154.355" height="106.566" style="fill: rgb(255, 255, 255); stroke: rgb(0, 0, 0);"/>
  <rect x="40.969" y="17.259" width="154.355" height="106.566" style="fill: rgb(255, 255, 255); stroke: rgb(0, 0, 0);"/>
  <rect x="24.895" y="31.158" width="154.355" height="106.566" style="fill: rgb(255, 255, 255); stroke: rgb(0, 0, 0);"/>
  <rect x="11.119" y="44.189" width="154.355" height="106.566" style="fill: rgb(255, 255, 255); stroke: rgb(0, 0, 0);"/>
  <rect x="433.611" y="7.223" width="154.355" height="106.566" style="fill: rgb(255, 255, 255); stroke: rgb(0, 0, 0);"/>
  <rect x="420.431" y="17.259" width="154.355" height="106.566" style="fill: rgb(255, 255, 255); stroke: rgb(0, 0, 0);"/>
  <rect x="407.392" y="31.158" width="154.355" height="106.566" style="fill: rgb(255, 255, 255); stroke: rgb(0, 0, 0);"/>
  <rect x="393.102" y="44.189" width="154.355" height="106.566" style="fill: rgb(255, 255, 255); stroke: rgb(0, 0, 0);"/>
  <rect x="379.797" y="55.188" width="154.355" height="106.566" style="fill: rgb(255, 255, 255); stroke: rgb(0, 0, 0);"/>
  <rect x="364.487" y="69.123" width="154.355" height="106.566" style="fill: rgb(255, 255, 255); stroke: rgb(0, 0, 0);"/>
  <text style="fill: rgb(51, 51, 51); font-family: &quot;Helvetica&quot;; font-size: 12px; white-space: pre;" x="44.98" y="172.25">Input (depth 4)</text>
  <text style="fill: rgb(51, 51, 51); font-family: &quot;Helvetica&quot;; font-size: 12px; white-space: pre;" x="399.108" y="196.609">Output (depth 6)</text>
  <line style="stroke: rgb(215, 215, 215);" x1="212.769" y1="31.158" x2="364.487" y2="105.749"/>
  <line style="stroke: rgb(215, 215, 215);" x1="195.324" y1="55.188" x2="364.487" y2="105.749"/>
  <line style="stroke: rgb(215, 215, 215);" x1="179.25" y1="76.477" x2="364.487" y2="105.749"/>
  <line style="stroke: rgb(215, 215, 215);" x1="165.474" y1="105.749" x2="364.487" y2="105.749"/>
  <g transform="matrix(1, 0, 0, 1, 69.249275, -129.221008)">
    <rect x="177.232" y="171.531" width="16.721" height="13.813" style="fill: rgb(216, 216, 216);" rx="1.919" ry="1.919"/>
    <text style="font-family: Helvetica; font-size: 12px; white-space: pre;" x="179.261" y="182.547">K1</text>
  </g>
  <g transform="matrix(1, 0, 0, 1, 69.249275, -107.379265)">
    <rect x="177.232" y="171.531" width="16.721" height="13.813" style="fill: rgb(216, 216, 216);" rx="1.919" ry="1.919"/>
    <text style="font-family: Helvetica; font-size: 12px; white-space: pre;" x="179.261" y="182.547">K2</text>
  </g>
  <g transform="matrix(1, 0, 0, 1, 69.959824, -88.165321)">
    <rect x="177.232" y="171.531" width="16.721" height="13.813" style="fill: rgb(216, 216, 216);" rx="1.919" ry="1.919"/>
    <text style="font-family: Helvetica; font-size: 12px; white-space: pre;" x="179.261" y="182.547">K3</text>
  </g>
  <g transform="matrix(1, 0, 0, 1, 69.959824, -70.801544)">
    <rect x="177.232" y="171.531" width="16.721" height="13.813" style="fill: rgb(216, 216, 216);" rx="1.919" ry="1.919"/>
    <text style="font-family: Helvetica; font-size: 12px; white-space: pre;" x="179.261" y="182.547">K4</text>
  </g>
  <text style="fill: rgb(51, 51, 51); font-family: &quot;Helvetica&quot;; font-size: 12px; white-space: pre;" x="213.524" y="148.828">Total kernels: 4x6=24</text>
</svg>